# xmcd CD Database Entry
#
# Track frame offsets:
# 187
# 10860
# 27982
# 50227
# 82000
# 100080
# 128847
# 156715
# 195650
# 220882
# 237865
# 254082
# 281095
# 307880
# 338717
#
# Disc length: 4735 seconds
#
# Revision: 2
# Processed by: cddbd v1.4PL0 Copyright (c) Steve Scherf et al.
# Submitted via: tcd 2.0b
#
DISCID=dc127d0f
DTITLE=Roy Hargrove - Family
DYEAR=1900
DGENRE=
TTITLE0=Velera
TTITLE1=Roy Allan
TTITLE2=Brian's Bounce
TTITLE3=The Nearness of You
TTITLE4=Lament for Love
TTITLE5=Another Level
TTITLE6=A Dream of You
TTITLE7=Pas de Trois
TTITLE8=Polka Dots and Moonbeams
TTITLE9=The Challenge
TTITLE10=Ethiopia
TTITLE11=Nostalgia
TTITLE12=Thirteenth Floor
TTITLE13=Firm Roots
TTITLE14=The Trial
EXTD=
EXTT0=
EXTT1=
EXTT2=
EXTT3=
EXTT4=
EXTT5=
EXTT6=
EXTT7=
EXTT8=
EXTT9=
EXTT10=
EXTT11=
EXTT12=
EXTT13=
EXTT14=
PLAYORDER=
